<?xml version="1.0" encoding="utf-8"?>
<!-- Generator: Adobe Illustrator 28.1.0, SVG Export Plug-In . SVG Version: 6.00 Build 0)  -->
<svg version="1.1" id="Слой_1" xmlns="http://www.w3.org/2000/svg" xmlns:xlink="http://www.w3.org/1999/xlink" x="0px" y="0px"
	 viewBox="0 0 120 114" style="enable-background:new 0 0 120 114;" xml:space="preserve">
<style type="text/css">
	.st0{fill:#F1F4F8;}
	.st1{fill:#07172E;}
</style>
<g>
	<circle class="st0" cx="60" cy="57" r="57"/>
</g>
<path class="st1" d="M81.7,44.8c-0.9-1.1-2.2-1.7-3.6-1.7H53.5c-0.9,0-1.7,0.8-1.7,1.7c0,1,0.8,1.7,1.7,1.7H78c0.5,0,0.9,0.3,1,0.5
	c0.2,0.2,0.4,0.6,0.3,1.1l-2.2,15.3c-0.2,1.2-1.2,2.1-2.4,2.1H49.9c-1.3,0-2.3-1-2.4-2.2l-2.2-26.7c-0.1-0.8-0.6-1.4-1.4-1.6
	l-4.7-0.8c-0.9-0.2-1.8,0.5-2,1.4c-0.2,1,0.5,1.9,1.4,2l3.4,0.6l2.1,25.4c0.3,3.1,2.8,5.4,5.8,5.4h24.9c2.9,0,5.4-2.2,5.8-5.1
	l2.2-15.3C83,47.3,82.6,45.9,81.7,44.8z"/>
<path class="st1" d="M46.1,76.3c0-1.9,1.6-3.5,3.5-3.5c1.9,0,3.5,1.6,3.5,3.5s-1.5,3.5-3.5,3.5C47.7,79.8,46.1,78.2,46.1,76.3z"/>
<path class="st1" d="M71.8,76.3c0-1.9,1.5-3.5,3.5-3.5s3.5,1.6,3.5,3.5s-1.6,3.5-3.5,3.5S71.8,78.2,71.8,76.3z"/>
<path class="st1" d="M72.9,53.5c0,1-0.8,1.7-1.7,1.7h-6.3c-0.9,0-1.7-0.8-1.7-1.7s0.8-1.7,1.7-1.7h6.3
	C72.1,51.7,72.9,52.5,72.9,53.5z"/>
</svg>
