<?xml version="1.0" encoding="utf-8"?>
<!-- Generator: Adobe Illustrator 28.1.0, SVG Export Plug-In . SVG Version: 6.00 Build 0)  -->
<svg version="1.1" id="Слой_1" xmlns="http://www.w3.org/2000/svg" xmlns:xlink="http://www.w3.org/1999/xlink" x="0px" y="0px"
	 viewBox="0 0 120 114" style="enable-background:new 0 0 120 114;" xml:space="preserve">
<style type="text/css">
	.st0{fill:#F1F4F8;}
	.st1{fill:#07172E;}
</style>
<g>
	<circle class="st0" cx="60" cy="57" r="57"/>
</g>
<path class="st1" d="M80.2,47c1.6,1.3,2.6,3.3,2.6,5.4l0,18.3c0,5-4,9-8.9,9h-4c-2.4,0-4.3-1.9-4.3-4.4v-8.3c0-0.6-0.5-1.2-1.1-1.2
	h-5.9c-0.3,0-0.6,0.1-0.8,0.3c-0.2,0.2-0.3,0.5-0.3,0.8v3.2c0,1-0.8,1.8-1.8,1.8c-1,0-1.8-0.8-1.8-1.8v-3.2c0-1.3,0.5-2.5,1.4-3.4
	c0.9-0.9,2.1-1.4,3.3-1.4h5.9c2.6,0,4.7,2.1,4.7,4.8v8.3c0,0.4,0.3,0.8,0.8,0.8H74c2.9,0,5.3-2.4,5.3-5.4V52.5c0-1-0.5-2-1.3-2.6
	l-13.7-11c-1.7-1.4-4.2-1.4-5.9,0L54,42.2c-0.8,0.6-1.9,0.4-2.5-0.4c-0.6-0.8-0.4-2,0.4-2.6l4.3-3.2c3-2.4,7.3-2.4,10.3,0L80.2,47z"
	/>
<path class="st1" d="M49,76.2h9.1v0c1,0,1.8,0.8,1.8,1.8c0,1-0.8,1.8-1.8,1.8H49c-4.9,0-8.9-4-8.9-9V52.5c0-2.1,1-4.1,2.7-5.4
	l1.6-1.2c0.8-0.4,1.7-0.1,2.2,0.6c0.5,0.7,0.4,1.7-0.1,2.3l-1.6,1.2c-0.8,0.6-1.2,1.6-1.2,2.6v18.3C43.6,73.7,46,76.1,49,76.2z"/>
</svg>
