<?xml version="1.0" encoding="utf-8"?>
<!-- Generator: Adobe Illustrator 28.1.0, SVG Export Plug-In . SVG Version: 6.00 Build 0)  -->
<svg version="1.1" id="Слой_1" xmlns="http://www.w3.org/2000/svg" xmlns:xlink="http://www.w3.org/1999/xlink" x="0px" y="0px"
	 viewBox="0 0 120 114" style="enable-background:new 0 0 120 114;" xml:space="preserve">
<style type="text/css">
	.st0{fill:#F1F4F8;}
	.st1{fill:#07172E;}
</style>
<g>
	<circle class="st0" cx="60" cy="57" r="57"/>
</g>
<path class="st1" d="M82.2,76.6L74.4,69l-0.2-0.3c-0.3-0.3-0.8-0.5-1.3-0.5c-0.5,0-1,0.2-1.3,0.5c-6.7,6.1-16.9,6.4-24,0.8
	c-7.1-5.7-8.7-15.6-3.9-23.2c4.8-7.6,14.7-10.5,23-6.8c8.3,3.7,12.5,12.9,9.8,21.4c-0.2,0.6,0,1.3,0.4,1.8c0.4,0.5,1.1,0.7,1.8,0.5
	c0.6-0.1,1.2-0.6,1.4-1.2c3.2-10.1-1.6-21-11.4-25.7c-9.8-4.6-21.5-1.6-27.6,7.2c-6.1,8.7-4.8,20.6,3.1,27.8
	c7.9,7.2,20.1,7.7,28.6,1.2l6.9,6.8c0.7,0.7,1.9,0.7,2.6,0C83,78.6,83,77.4,82.2,76.6L82.2,76.6z"/>
</svg>
